HIERARCHY
ROOT Hips
{
	OFFSET -3.958830 18.904000 13.208200
	CHANNELS 6 Xposition Yposition Zposition Zrotation Yrotation Xrotation 
	JOINT LHipJoint
	{
		OFFSET 0.000000 0.000000 0.000000
		CHANNELS 3 Zrotation Yrotation Xrotation
		JOINT LeftUpLeg
		{
			OFFSET 1.800000 -1.400000 0.085000
			CHANNELS 3 Zrotation Yrotation Xrotation
			JOINT LeftLeg
			{
				OFFSET 2.215000 -6.000000 0.000000
				CHANNELS 3 Zrotation Yrotation Xrotation
				JOINT LeftFoot
				{
					OFFSET 2.500000 -6.900000 0.000000
					CHANNELS 3 Zrotation Yrotation Xrotation
					JOINT LeftToeBase
					{
						OFFSET 0.200000 -0.500000 1.950000
						CHANNELS 3 Zrotation Yrotation Xrotation
						End Site
						{
							OFFSET 0.000000 0.000000 0.000000
						}
					}
				}
			}
		}
	}
	JOINT RHipJoint
	{
		OFFSET 0.000000 0.000000 0.000000
		CHANNELS 3 Zrotation Yrotation Xrotation
		JOINT RightUpLeg
		{
			OFFSET -1.800000 -1.400000 0.085000
			CHANNELS 3 Zrotation Yrotation Xrotation
			JOINT RightLeg
			{
				OFFSET -2.215000 -6.000000 0.000000
				CHANNELS 3 Zrotation Yrotation Xrotation
				JOINT RightFoot
				{
					OFFSET -2.500000 -6.900000 0.000000
					CHANNELS 3 Zrotation Yrotation Xrotation
					JOINT RightToeBase
					{
						OFFSET -0.200000 -0.500000 1.950000
						CHANNELS 3 Zrotation Yrotation Xrotation
						End Site
						{
							OFFSET 0.000000 0.000000 0.000000
						}
					}
				}
			}
		}
	}
	JOINT LowerBack
	{
		OFFSET 0.000000 0.000000 0.000000
		CHANNELS 3 Zrotation Yrotation Xrotation
		JOINT Spine
		{
			OFFSET -0.087000 1.940000 -0.288900
			CHANNELS 3 Zrotation Yrotation Xrotation
			JOINT Spine1
			{
				OFFSET 0.000000 1.950000 0.060000
				CHANNELS 3 Zrotation Yrotation Xrotation
				JOINT Neck
				{
					OFFSET 0.000000 0.000000 0.000000
					CHANNELS 3 Zrotation Yrotation Xrotation
					JOINT Neck1
					{
						OFFSET 0.000000 1.600000 0.340000
						CHANNELS 3 Zrotation Yrotation Xrotation
						JOINT Head
						{
							OFFSET 0.000000 1.667000 -0.240000
							CHANNELS 3 Zrotation Yrotation Xrotation
							End Site
							{
								OFFSET 0.000000 0.000000 0.000000
							}
						}
					}
				}
				JOINT LeftShoulder
				{
					OFFSET 0.000000 0.000000 0.000000
					CHANNELS 3 Zrotation Yrotation Xrotation
					JOINT LeftArm
					{
						OFFSET 2.700000 1.550000 -0.730000
						CHANNELS 3 Zrotation Yrotation Xrotation
						JOINT LeftForeArm
						{
							OFFSET 5.450000 0.000000 0.000000
							CHANNELS 3 Zrotation Yrotation Xrotation
							JOINT LeftHand
							{
								OFFSET 3.450000 0.000000 0.000000
								CHANNELS 3 Zrotation Yrotation Xrotation
								JOINT LeftHandIndex1
								{
									OFFSET 0.750000 0.000000 0.000000
									CHANNELS 3 Zrotation Yrotation Xrotation
									End Site
									{
										OFFSET 0.000000 0.000000 0.000000
									}
								}
							}
						}
					}
				}
				JOINT RightShoulder
				{
					OFFSET 0.000000 0.000000 0.000000
					CHANNELS 3 Zrotation Yrotation Xrotation
					JOINT RightArm
					{
						OFFSET -2.700000 1.550000 -0.730000
						CHANNELS 3 Zrotation Yrotation Xrotation
						JOINT RightForeArm
						{
							OFFSET -5.450000 0.000000 0.000000
							CHANNELS 3 Zrotation Yrotation Xrotation
							JOINT RightHand
							{
								OFFSET -3.450000 0.000000 0.000000
								CHANNELS 3 Zrotation Yrotation Xrotation
								JOINT RightHandIndex1
								{
									OFFSET -0.750000 0.000000 0.000000
									CHANNELS 3 Zrotation Yrotation Xrotation
									End Site
									{
										OFFSET 0.000000 0.000000 0.000000
									}
								}
							}
						}
					}
				}
			}
		}
	}
}
MOTION
Frames: 14
Frame Time: 0.016667
-2.574150 16.775480 -2.470770 -13.506553 -49.163404 -3.606414 -15.037765 13.087041 3.385109 -6.292257 -1.871175 -27.701645 6.349683 6.478962 41.400349 -0.122178 6.239183 2.229025 0.576830 0.168150 0.712610 18.195319 -11.040290 3.640001 -4.463224 10.626896 13.168731 19.470250 -17.096525 45.579562 -1.858599 -9.711100 1.306166 0.083650 -0.165520 0.069030 -3.537457 -0.633397 -8.239811 13.234066 7.072599 26.315908 -16.724381 12.861789 -3.217632 12.408658 -6.266209 -11.469880 -11.393618 12.896110 48.867786 -3.459120 11.022530 -12.980500 -21.080181 6.195176 -2.649965 -46.777151 14.571881 -9.461369 -7.597714 -5.293097 -1.676972 -3.510574 2.452480 0.832130 -0.179360 0.224570 0.086880 -5.555050 6.886237 8.254345 -8.363244 4.743361 -2.049069 -15.087940 18.177159 -0.916765 2.288501 -1.387181 -0.229480 0.165460 -0.205100 -0.410040 
-2.575680 16.728540 -2.464120 -13.886185 -52.513590 -3.604335 -15.106740 13.321303 3.424818 -5.600261 -1.601652 -28.699305 6.247352 7.003788 43.034875 0.007508 6.561445 2.100293 0.581620 0.197360 0.688000 18.098742 -10.964809 3.510030 -5.349646 10.431160 14.371671 17.826825 -16.265053 45.068782 -1.801118 -9.531650 1.375791 0.065770 -0.174600 0.083640 -3.145685 -1.166584 -8.261298 12.006564 7.912610 27.734202 -16.084014 13.657507 -6.676596 12.892540 -6.938697 -11.235155 -12.687040 13.807012 49.210661 -3.682830 11.509990 -12.370320 -21.574365 8.578179 -3.664210 -46.247377 15.740634 -9.561554 -7.740179 -6.177377 -1.616124 -3.486709 2.488122 0.795840 -0.179700 0.237470 0.101400 -6.073569 6.344962 8.050768 -8.066860 4.724419 -1.897369 -14.679588 21.301693 -0.896066 2.269520 -1.444900 -0.176440 0.132390 -0.219700 -0.377730 
-2.570120 16.657670 -2.456890 -14.877906 -56.375462 -0.393594 -15.303484 13.503344 3.766493 -4.163232 -2.685634 -33.002818 4.923904 8.042640 45.561490 0.244618 7.144030 1.905242 0.526330 0.160350 0.540580 17.948442 -10.461957 3.187056 -7.542967 10.562829 12.201085 17.708370 -16.536698 45.557094 -1.718317 -9.498055 1.393552 0.007780 -0.088470 0.087230 -2.306286 -2.515843 -8.440772 8.160092 8.733495 27.533180 -12.088161 13.571928 -14.423204 12.616349 -9.309838 -11.197106 -17.716329 17.532035 46.810695 0.751800 11.864620 -6.320670 -19.380924 14.027176 -4.036345 -49.232019 19.773402 -10.972063 -7.952174 -9.517866 -1.514856 -3.483585 2.615470 0.700580 -0.159390 0.180250 0.162510 -6.368699 4.831099 7.122022 -6.816250 4.528147 -1.523133 -16.020940 29.966938 -1.273096 2.268401 -1.578003 -0.128660 0.075500 -0.217940 -0.283060 
-2.509240 16.670420 -2.483700 -16.734272 -58.655420 0.796736 -15.287125 13.691710 3.815462 -1.637113 -2.631362 -32.568522 2.571803 8.892717 44.548463 0.152741 7.186406 1.856504 0.507870 0.095210 0.590560 17.924713 -10.432136 3.128943 -8.284689 10.155844 12.543622 16.930605 -16.383555 45.455443 -1.698934 -9.390317 1.395265 -0.018430 -0.147430 0.075740 -2.282655 -2.905988 -8.492063 9.152060 8.675665 29.254586 -13.077819 13.652274 -16.970665 12.800431 -8.226899 -11.039532 -16.271364 17.506586 49.530374 0.187970 12.869620 -6.875320 -23.974805 11.977759 -3.611875 -44.542923 21.632096 -10.907753 -9.257752 -13.547237 -1.262322 -3.341910 2.707243 0.786340 -0.196970 0.200060 0.107710 -2.106511 5.069308 6.625927 -8.498679 -1.870436 -1.226701 -13.864602 37.570162 -0.874447 2.256356 -1.565718 -0.169680 0.061190 -0.192260 -0.351940 
-2.435220 16.740370 -2.532410 -17.497704 -58.968591 1.988771 -15.304469 13.815677 3.913306 0.053437 -3.124862 -31.931006 -0.566386 9.326539 41.370549 0.066159 6.828896 1.978094 0.506050 0.107120 0.606290 17.895073 -10.346755 3.028078 -8.810190 8.870552 12.082480 16.506525 -16.018579 43.786961 -1.637350 -9.073176 1.485474 -0.015210 -0.148980 0.068260 -2.226285 -3.436116 -8.485981 9.230145 7.601572 29.513644 -12.526500 12.373248 -17.983426 12.751885 -8.756563 -10.888432 -18.841381 19.297180 50.006834 -0.165160 13.617350 -7.431860 -25.911956 11.049665 -3.679316 -43.222886 19.497832 -8.656151 -6.359869 -8.955158 -1.326246 -3.408590 2.605963 0.795030 -0.203660 0.220990 0.094820 0.389301 5.308886 6.165483 -8.607805 -3.773989 -0.947564 -10.284945 41.289257 0.047923 2.266869 -1.541980 -0.170320 0.093650 -0.186000 -0.350550 
-2.346810 16.821460 -2.602200 -19.056818 -58.977391 4.032515 -15.212558 13.789732 3.891658 1.587844 -3.371017 -30.583394 -2.637464 8.673427 36.407152 -0.099754 6.021488 2.243455 0.575340 0.213950 0.611620 17.964244 -10.556129 2.991387 -8.305254 7.389373 10.705271 14.608634 -15.223617 43.609164 -1.588196 -8.847146 1.535638 0.052190 -0.135370 0.112110 -2.684235 -3.207071 -8.283014 11.475221 5.029077 27.981750 -12.961684 9.947570 -12.856087 12.038846 -9.789274 -11.321766 -22.628581 21.770966 46.771201 0.451470 14.237170 -7.848300 -26.922850 7.025514 -2.655181 -44.783446 13.289702 -6.162549 -3.266948 -4.259423 -1.159725 -3.519184 2.659327 0.745100 -0.174880 0.226170 0.117240 2.562064 7.734831 5.945223 -8.344675 -1.802470 -1.711928 -5.625271 37.641631 1.186466 2.217949 -1.532696 -0.122330 0.077900 -0.201400 -0.321590 
-2.272730 16.918010 -2.669170 -16.990151 -57.582701 4.397960 -15.185130 13.786824 3.993474 -0.519568 -4.705165 -29.597101 -1.663842 6.444597 30.291370 -0.245602 4.613259 2.792010 0.561720 0.226190 0.594420 17.978407 -10.735489 2.831626 -9.046278 5.363992 8.056277 12.676821 -14.545966 42.600291 -1.478537 -8.453981 1.670100 0.031250 -0.105230 0.148770 -2.678996 -3.243765 -8.175902 9.020851 3.745874 25.498609 -12.062350 7.442603 -11.063813 11.191775 -8.816624 -10.582148 -20.465393 21.823291 45.484593 -0.899140 16.647100 -7.506750 -26.955719 5.648415 -2.067913 -43.275190 10.046034 -5.908888 -1.190756 -8.027030 -1.122691 -3.524894 2.767626 0.691630 -0.129380 0.234350 0.148910 4.619988 6.134740 5.528539 0.624480 -4.212958 -4.179685 -8.363091 47.811604 -0.376681 2.136332 -1.595935 -0.088270 0.051580 -0.226330 -0.290340 
-2.154550 17.056560 -2.755130 -15.723948 -55.259757 3.971540 -15.094871 13.838895 3.935357 -2.159212 -4.833892 -26.953047 -0.451552 4.552843 22.982825 -0.431441 3.303750 3.274601 0.582730 0.238390 0.646950 18.050963 -10.993051 2.756293 -7.936755 3.245228 6.883143 9.504364 -12.905133 40.996824 -1.373686 -7.866735 1.832550 0.018250 -0.155610 0.202300 -2.905682 -3.070062 -7.993830 8.400475 1.764191 24.360429 -12.059767 4.977751 -7.156284 9.943740 -7.823861 -10.532524 -18.650770 21.828874 46.062486 -3.285490 18.715760 -9.846600 -27.294725 2.475885 -0.559174 -41.638776 8.076076 -7.046658 -0.261328 -15.628666 -1.415715 -3.448396 2.912282 0.708950 -0.134810 0.279850 0.128050 7.364878 6.485567 5.380258 9.578860 -3.997807 -7.528063 -13.011992 50.988168 -3.043341 2.046294 -1.516115 -0.052640 -0.000340 -0.234610 -0.311610 
-2.000920 17.172160 -2.877820 -17.967564 -56.011975 7.472988 -15.108995 14.006761 3.905062 -1.364607 -4.435969 -27.568110 0.631377 3.758109 19.176472 -0.514547 2.762951 3.461284 0.600570 0.250960 0.629660 18.058346 -10.991175 2.660902 -4.733970 2.043326 3.587806 4.659626 -10.272624 41.192710 -1.225866 -7.194998 2.021903 0.023040 -0.159660 0.230650 -2.988286 -3.419931 -7.787518 9.666622 0.504279 24.491835 -10.806155 3.997761 -6.116324 8.947578 -9.158996 -10.529649 -23.112994 23.073258 41.497238 -3.798060 18.246010 -10.939280 -23.752406 3.330796 -1.079626 -44.544207 2.412821 -5.784980 -0.083875 -16.561688 -1.498429 -3.489684 2.947515 0.694620 -0.146380 0.273340 0.131030 5.975797 5.752454 5.571455 18.907842 -3.770618 -9.859788 -11.645723 55.014987 -3.450429 1.981979 -1.558835 -0.023420 -0.030910 -0.225070 -0.292760 
-1.849590 17.258270 -3.059330 -18.470071 -60.437137 8.747141 -15.099197 14.024086 3.892703 -0.160763 -4.097501 -27.946033 -0.040411 4.235037 20.128674 -0.499528 2.941215 3.405757 0.579060 0.243140 0.615810 18.052063 -11.209431 2.534339 -3.871832 2.255871 -0.246943 -0.477897 -7.361786 41.864214 -1.078822 -6.612016 2.214785 0.022300 -0.149650 0.195800 -3.103242 -3.112875 -7.582629 7.891580 1.544760 25.265269 -10.232789 4.836290 -3.883180 7.528624 -9.144036 -10.927726 -23.169926 23.561888 38.483843 -4.488360 19.406940 -13.307100 -20.117357 2.855223 -0.423873 -45.273547 -0.368508 -7.356125 1.859647 -27.868970 -2.305417 -3.416691 2.965779 0.708510 -0.156770 0.270430 0.138870 5.151997 5.895642 5.932828 29.263907 -2.446803 -12.008319 -7.772571 53.453892 -2.505650 1.969534 -1.507421 -0.056270 0.009450 -0.226460 -0.296160 
-1.705330 17.359860 -3.212820 -17.978281 -63.130302 7.236591 -15.170612 14.263850 3.873827 0.911088 -4.015067 -27.120190 -0.899938 5.298250 24.740954 -0.421491 3.732053 3.090048 0.576360 0.226180 0.650420 17.971804 -11.178563 2.404223 -3.796126 1.808046 -1.214208 -3.658414 -5.653664 40.660189 -1.001322 -6.144380 2.347889 0.007560 -0.204160 0.198630 -2.806260 -3.583479 -7.477380 4.468670 2.200597 27.549728 -7.281776 5.319867 -1.334426 6.215941 -9.001248 -11.418097 -24.405442 23.576755 38.269318 -7.334260 19.714320 -17.062100 -18.904772 0.543879 0.518245 -44.155302 -3.158568 -8.462332 6.166815 -36.523698 -4.248204 -3.338042 2.967389 0.759870 -0.195010 0.303690 0.105290 6.742651 8.028707 6.403523 34.331821 -0.952415 -13.087922 -6.221745 49.154739 -2.248006 2.013072 -1.387540 -0.061250 0.010590 -0.210510 -0.328670 
-1.567310 17.430580 -3.324080 -15.817219 -64.911961 4.209457 -15.230041 14.241688 4.074478 1.491285 -5.084911 -26.983756 -2.753637 7.360629 33.208911 -0.143534 5.288690 2.487755 0.644930 0.295220 0.729280 17.939881 -11.117805 2.185441 -4.877469 1.151565 -1.595267 -5.179675 -4.973255 38.858101 -0.973270 -5.770299 2.438426 0.019360 -0.315810 0.213750 -2.669000 -3.863799 -7.469603 1.916813 2.425636 29.643722 -5.234891 5.195984 0.839951 4.721877 -8.826930 -11.931116 -26.211100 23.872566 38.733636 -10.018940 19.882810 -20.791150 -17.794533 -1.904084 1.426886 -40.710594 -5.408234 -9.235896 11.872166 -42.762051 -6.984966 -3.214293 2.998926 0.797110 -0.267110 0.378270 0.096950 8.626206 9.907037 6.935990 39.417605 -0.366597 -14.170268 -5.933661 45.567700 -2.562634 2.085345 -1.345140 -0.011080 -0.033600 -0.258400 -0.345390 
-1.431410 17.434890 -3.438350 -14.308614 -65.432491 3.365426 -15.335035 13.830588 4.533830 2.906833 -7.165249 -28.935544 -5.867485 10.665539 42.962394 0.199553 7.616457 1.664169 0.620030 0.265060 0.723250 17.936227 -10.939963 1.926844 -5.295905 0.608109 -3.305597 -5.990599 -4.636756 36.920003 -0.874863 -5.402997 2.546571 0.032020 -0.294490 0.220180 -2.677537 -3.829222 -7.612735 0.444673 2.278817 29.383922 -3.642234 4.672314 3.061491 2.781770 -8.580540 -11.694458 -25.577597 23.792764 38.319057 -10.958080 20.401360 -22.972200 -17.937702 -4.298219 1.757624 -35.123624 -6.869529 -9.940110 20.819249 -48.590077 -11.536460 -3.235218 2.902176 0.824180 -0.239680 0.359640 0.067580 12.385061 11.396387 7.279007 41.318422 -0.085900 -13.927369 -3.727012 41.536363 -2.019567 2.092956 -1.280119 -0.055490 -0.006130 -0.208680 -0.379890 
-1.283120 17.403790 -3.513050 -13.451283 -65.758346 2.521365 -15.441980 13.397879 5.066407 4.893156 -9.550066 -30.355577 -9.422660 15.108233 52.978429 0.773244 10.244105 0.812982 0.637900 0.266880 0.776650 17.931428 -10.725739 1.642015 -6.069920 0.010007 -4.233792 -6.666702 -4.479505 35.295911 -0.831505 -5.115559 2.617449 0.031890 -0.343770 0.236690 -2.673997 -3.846305 -7.842553 0.056224 1.780682 30.761544 -2.725064 4.069600 3.889100 1.786814 -8.183530 -11.472644 -25.196935 23.359191 39.474810 -13.504900 20.829690 -24.951010 -17.861755 -5.708846 1.534831 -29.419203 -8.252033 -10.239328 30.345569 -51.659146 -16.232799 -3.214268 2.805790 0.847100 -0.254700 0.386270 0.047810 14.107748 12.023091 7.496411 44.318053 0.408958 -13.797007 -1.179613 38.732116 -1.459679 2.138754 -1.269661 -0.049670 -0.029590 -0.216510 -0.410900 
